<svg width="255" height="79" viewBox="0 0 255 79" fill="none" xmlns="http://www.w3.org/2000/svg">
<path d="M39.2246 0.0820312H0.0408936V78.4494H39.2246V0.0820312Z" fill="#1FB141"/>
<path d="M58.8164 39.2657C69.6367 39.2657 78.4082 30.4941 78.4082 19.6739C78.4082 8.85359 69.6367 0.0820312 58.8164 0.0820312C47.9961 0.0820312 39.2246 8.85359 39.2246 19.6739C39.2246 30.4941 47.9961 39.2657 58.8164 39.2657Z" fill="#1FB141"/>
<path d="M58.8164 78.4494C69.6367 78.4494 78.4082 69.6778 78.4082 58.8575C78.4082 48.0373 69.6367 39.2657 58.8164 39.2657C47.9961 39.2657 39.2246 48.0373 39.2246 58.8575C39.2246 69.6778 47.9961 78.4494 58.8164 78.4494Z" fill="#1FB141"/>
<path d="M113.584 25.1081V53.633H106.69V25.1081H113.584Z" fill="#1A1A1A"/>
<path d="M143.569 35.4428H136.605C136.512 34.7278 136.322 34.0825 136.034 33.5068C135.746 32.9311 135.366 32.4389 134.892 32.0304C134.419 31.6218 133.857 31.3108 133.207 31.0972C132.566 30.8743 131.856 30.7629 131.076 30.7629C129.692 30.7629 128.499 31.1018 127.496 31.7797C126.503 32.4575 125.737 33.4371 125.198 34.7185C124.669 35.9999 124.404 37.5506 124.404 39.3705C124.404 41.2647 124.674 42.8526 125.212 44.134C125.76 45.4061 126.526 46.3671 127.51 47.0171C128.504 47.6578 129.678 47.9781 131.034 47.9781C131.795 47.9781 132.487 47.8806 133.109 47.6856C133.741 47.4906 134.293 47.2074 134.767 46.836C135.25 46.4553 135.644 45.9957 135.951 45.4571C136.266 44.9093 136.485 44.2918 136.605 43.6047L143.569 43.6465C143.449 44.9093 143.082 46.1535 142.469 47.3792C141.866 48.6049 141.034 49.7238 139.976 50.7359C138.917 51.7387 137.627 52.5373 136.104 53.1315C134.59 53.7258 132.854 54.0229 130.895 54.0229C128.313 54.0229 126.001 53.4565 123.959 52.3237C121.925 51.1816 120.319 49.5195 119.139 47.3374C117.96 45.1553 117.371 42.4997 117.371 39.3705C117.371 36.232 117.969 33.5718 119.167 31.3897C120.365 29.2076 121.985 27.5501 124.028 26.4173C126.071 25.2845 128.36 24.7181 130.895 24.7181C132.622 24.7181 134.219 24.9595 135.686 25.4424C137.153 25.9159 138.444 26.6123 139.558 27.5316C140.672 28.4415 141.578 29.5604 142.274 30.8883C142.97 32.2161 143.402 33.7343 143.569 35.4428Z" fill="#1A1A1A"/>
<path d="M174.202 39.3705C174.202 42.509 173.599 45.1693 172.392 47.3514C171.185 49.5334 169.55 51.1909 167.489 52.3237C165.437 53.4565 163.134 54.0229 160.581 54.0229C158.018 54.0229 155.71 53.4519 153.658 52.3098C151.606 51.1677 149.977 49.5102 148.77 47.3374C147.572 45.1553 146.973 42.4997 146.973 39.3705C146.973 36.232 147.572 33.5718 148.77 31.3897C149.977 29.2076 151.606 27.5501 153.658 26.4173C155.71 25.2845 158.018 24.7181 160.581 24.7181C163.134 24.7181 165.437 25.2845 167.489 26.4173C169.55 27.5501 171.185 29.2076 172.392 31.3897C173.599 33.5718 174.202 36.232 174.202 39.3705ZM167.155 39.3705C167.155 37.5134 166.89 35.9442 166.361 34.6628C165.841 33.3814 165.089 32.4111 164.104 31.7518C163.129 31.0925 161.955 30.7629 160.581 30.7629C159.216 30.7629 158.041 31.0925 157.057 31.7518C156.073 32.4111 155.316 33.3814 154.786 34.6628C154.267 35.9442 154.007 37.5134 154.007 39.3705C154.007 41.2276 154.267 42.7968 154.786 44.0782C155.316 45.3596 156.073 46.33 157.057 46.9892C158.041 47.6485 159.216 47.9781 160.581 47.9781C161.955 47.9781 163.129 47.6485 164.104 46.9892C165.089 46.33 165.841 45.3596 166.361 44.0782C166.89 42.7968 167.155 41.2276 167.155 39.3705Z" fill="#1A1A1A"/>
<path d="M202.269 25.1081V53.633H196.419L185.068 37.1699H184.887V53.633H177.992V25.1081H183.926L195.152 41.5433H195.389V25.1081H202.269Z" fill="#1A1A1A"/>
<path d="M221.787 33.66C221.695 32.6386 221.281 31.8447 220.548 31.2783C219.824 30.7026 218.788 30.4147 217.442 30.4147C216.55 30.4147 215.808 30.5308 215.213 30.7629C214.619 30.995 214.173 31.3154 213.876 31.724C213.579 32.1232 213.426 32.5829 213.417 33.1028C213.398 33.53 213.482 33.906 213.667 34.231C213.862 34.556 214.141 34.8439 214.503 35.0946C214.874 35.336 215.32 35.5496 215.84 35.7353C216.36 35.921 216.945 36.0835 217.595 36.2228L220.046 36.7799C221.458 37.0863 222.702 37.4949 223.779 38.0056C224.866 38.5163 225.775 39.1245 226.509 39.8301C227.252 40.5358 227.814 41.3483 228.194 42.2676C228.575 43.1868 228.77 44.2175 228.779 45.3596C228.77 47.161 228.315 48.707 227.414 49.9977C226.514 51.2884 225.218 52.2773 223.528 52.9644C221.848 53.6515 219.819 53.9951 217.442 53.9951C215.055 53.9951 212.975 53.6376 211.202 52.9226C209.428 52.2076 208.05 51.1212 207.065 49.6634C206.081 48.2056 205.575 46.3625 205.547 44.134H212.149C212.205 45.0532 212.451 45.8193 212.887 46.4321C213.324 47.0449 213.923 47.5092 214.684 47.8249C215.455 48.1406 216.346 48.2985 217.358 48.2985C218.287 48.2985 219.076 48.1731 219.726 47.9224C220.385 47.6717 220.891 47.3235 221.244 46.8778C221.597 46.4321 221.778 45.9214 221.787 45.3457C221.778 44.8071 221.611 44.3475 221.286 43.9668C220.961 43.5768 220.46 43.2425 219.782 42.964C219.113 42.6761 218.259 42.4115 217.219 42.1701L214.238 41.4737C211.768 40.9073 209.823 39.9926 208.402 38.7298C206.982 37.4577 206.276 35.7399 206.285 33.5764C206.276 31.8122 206.75 30.2661 207.706 28.9383C208.662 27.6105 209.986 26.5752 211.676 25.8323C213.365 25.0895 215.292 24.7181 217.456 24.7181C219.666 24.7181 221.583 25.0941 223.208 25.8463C224.842 26.5891 226.11 27.6337 227.01 28.9801C227.911 30.3265 228.371 31.8864 228.389 33.66H221.787Z" fill="#1A1A1A"/>
<path d="M243.113 54.0229C240.894 54.0229 238.911 53.6701 237.166 52.9644C235.429 52.2494 234.064 51.2837 233.071 50.0673C232.086 48.8417 231.594 47.4581 231.594 45.9168C231.594 44.7375 231.877 43.6558 232.444 42.6715C233.01 41.6872 233.776 40.8701 234.742 40.2201C235.717 39.5609 236.803 39.1384 238.001 38.9527V38.7298C236.432 38.442 235.146 37.7131 234.143 36.5431C233.15 35.3731 232.653 34.0035 232.653 32.4343C232.653 30.9486 233.103 29.6254 234.004 28.4648C234.914 27.3041 236.153 26.3895 237.723 25.7209C239.301 25.0524 241.098 24.7181 243.113 24.7181C245.128 24.7181 246.92 25.0524 248.489 25.7209C250.068 26.3895 251.307 27.3041 252.208 28.4648C253.118 29.6254 253.573 30.9486 253.573 32.4343C253.573 34.0128 253.067 35.3871 252.055 36.557C251.052 37.7177 249.775 38.442 248.224 38.7298V38.9527C249.413 39.1384 250.49 39.5609 251.456 40.2201C252.431 40.8701 253.201 41.6872 253.768 42.6715C254.344 43.6558 254.631 44.7375 254.631 45.9168C254.631 47.4581 254.135 48.8417 253.141 50.0673C252.148 51.2837 250.783 52.2494 249.046 52.9644C247.319 53.6701 245.341 54.0229 243.113 54.0229ZM243.113 49.1342C243.958 49.1342 244.701 48.9763 245.341 48.6606C245.982 48.3356 246.483 47.8853 246.846 47.3096C247.217 46.7339 247.403 46.0839 247.403 45.3596C247.403 44.6168 247.217 43.9575 246.846 43.3818C246.474 42.8061 245.963 42.3558 245.313 42.0308C244.673 41.6965 243.939 41.5294 243.113 41.5294C242.296 41.5294 241.562 41.6965 240.912 42.0308C240.262 42.3558 239.752 42.8061 239.38 43.3818C239.009 43.9575 238.823 44.6168 238.823 45.3596C238.823 46.0839 239.004 46.7339 239.366 47.3096C239.738 47.876 240.244 48.3217 240.884 48.6467C241.534 48.9717 242.277 49.1342 243.113 49.1342ZM243.113 36.6685C243.837 36.6685 244.478 36.5199 245.035 36.2228C245.601 35.9256 246.042 35.5124 246.358 34.9831C246.683 34.4539 246.846 33.855 246.846 33.1864C246.846 32.5179 246.683 31.9282 246.358 31.4175C246.042 30.9068 245.606 30.5076 245.049 30.2197C244.492 29.9226 243.846 29.774 243.113 29.774C242.389 29.774 241.743 29.9226 241.177 30.2197C240.61 30.5076 240.169 30.9068 239.854 31.4175C239.538 31.9282 239.38 32.5179 239.38 33.1864C239.38 33.855 239.538 34.4539 239.854 34.9831C240.179 35.5031 240.624 35.9163 241.191 36.2228C241.757 36.5199 242.398 36.6685 243.113 36.6685Z" fill="#1A1A1A"/>
</svg>
